<svg width="360" height="412" xmlns="http://www.w3.org/2000/svg"><rect x="0" y="0" width="48" height="48" fill="transparent" stroke="transparent" stroke-width="1" /><rect x="156" y="0" width="48" height="48" fill="transparent" stroke="transparent" stroke-width="1" /><rect x="312" y="0" width="48" height="48" fill="transparent" stroke="transparent" stroke-width="1" /><rect x="0" y="52" width="48" height="48" fill="transparent" stroke="transparent" stroke-width="1" /><rect x="312" y="52" width="48" height="48" fill="transparent" stroke="transparent" stroke-width="1" /><rect x="52" y="104" width="48" height="48" fill="transparent" stroke="transparent" stroke-width="1" /><rect x="260" y="104" width="48" height="48" fill="transparent" stroke="transparent" stroke-width="1" /><rect x="52" y="156" width="48" height="48" fill="transparent" stroke="transparent" stroke-width="1" /><rect x="104" y="156" width="48" height="48" fill="transparent" stroke="transparent" stroke-width="1" /><rect x="208" y="156" width="48" height="48" fill="transparent" stroke="transparent" stroke-width="1" /><rect x="260" y="156" width="48" height="48" fill="transparent" stroke="transparent" stroke-width="1" /><rect x="104" y="208" width="48" height="48" fill="transparent" stroke="transparent" stroke-width="1" /><rect x="208" y="208" width="48" height="48" fill="transparent" stroke="transparent" stroke-width="1" /><rect x="0" y="260" width="48" height="48" fill="transparent" stroke="transparent" stroke-width="1" /><rect x="156" y="260" width="48" height="48" fill="transparent" stroke="transparent" stroke-width="1" /><rect x="312" y="260" width="48" height="48" fill="transparent" stroke="transparent" stroke-width="1" /><rect x="52" y="312" width="48" height="48" fill="transparent" stroke="transparent" stroke-width="1" /><rect x="260" y="312" width="48" height="48" fill="transparent" stroke="transparent" stroke-width="1" /><rect x="156" y="364" width="48" height="48" fill="transparent" stroke="transparent" stroke-width="1" /><line x1="180" y1="24" x2="24" y2="76" stroke="#666" stroke-width="2" /><line x1="180" y1="24" x2="128" y2="180" stroke="#666" stroke-width="2" /><line x1="180" y1="24" x2="232" y2="180" stroke="#666" stroke-width="2" /><line x1="180" y1="24" x2="336" y2="76" stroke="#666" stroke-width="2" /><line x1="24" y1="76" x2="24" y2="24" stroke="#666" stroke-width="2" /><line x1="24" y1="76" x2="76" y2="128" stroke="#666" stroke-width="2" /><line x1="336" y1="76" x2="336" y2="24" stroke="#666" stroke-width="2" /><line x1="336" y1="76" x2="284" y2="128" stroke="#666" stroke-width="2" /><line x1="76" y1="128" x2="128" y2="180" stroke="#666" stroke-width="2" /><line x1="76" y1="128" x2="76" y2="180" stroke="#666" stroke-width="2" /><line x1="76" y1="180" x2="128" y2="232" stroke="#666" stroke-width="2" /><line x1="76" y1="180" x2="24" y2="284" stroke="#666" stroke-width="2" /><line x1="284" y1="128" x2="232" y2="180" stroke="#666" stroke-width="2" /><line x1="284" y1="128" x2="284" y2="180" stroke="#666" stroke-width="2" /><line x1="284" y1="180" x2="232" y2="232" stroke="#666" stroke-width="2" /><line x1="284" y1="180" x2="336" y2="284" stroke="#666" stroke-width="2" /><line x1="128" y1="180" x2="128" y2="232" stroke="#666" stroke-width="2" /><line x1="128" y1="232" x2="180" y2="284" stroke="#666" stroke-width="2" /><line x1="232" y1="180" x2="232" y2="232" stroke="#666" stroke-width="2" /><line x1="232" y1="232" x2="180" y2="284" stroke="#666" stroke-width="2" /><line x1="24" y1="284" x2="76" y2="336" stroke="#666" stroke-width="2" /><line x1="180" y1="284" x2="76" y2="336" stroke="#666" stroke-width="2" /><line x1="180" y1="284" x2="284" y2="336" stroke="#666" stroke-width="2" /><line x1="336" y1="284" x2="284" y2="336" stroke="#666" stroke-width="2" /><line x1="180" y1="388" x2="76" y2="336" stroke="#666" stroke-width="2" /><line x1="180" y1="388" x2="284" y2="336" stroke="#666" stroke-width="2" /></svg>